<svg xmlns="http://www.w3.org/2000/svg" viewBox="0 0 100 100" width="100" height="100">
  <circle cx="50" cy="50" r="50" fill="#f3dcd2"/>
  <ellipse cx="50" cy="40" rx="18" ry="20" fill="#975746"/>
  <circle cx="50" cy="38" r="16" fill="#e9c4b3"/>
  <ellipse cx="50" cy="32" rx="18" ry="14" fill="#975746"/>
  <path d="M30 34 Q32 18 50 14 Q68 18 70 34 Q68 28 60 26 Q50 22 40 26 Q32 28 30 34Z" fill="#4a2c20"/>
  <circle cx="44" cy="36" r="1.5" fill="#4a2c20"/>
  <circle cx="56" cy="36" r="1.5" fill="#4a2c20"/>
  <path d="M47 42 Q50 44 53 42" fill="none" stroke="#975746" stroke-width="1.2" stroke-linecap="round"/>
  <ellipse cx="50" cy="85" rx="28" ry="22" fill="#e9c4b3"/>
  <path d="M22 85 Q22 65 35 58 Q42 54 50 54 Q58 54 65 58 Q78 65 78 85" fill="#f9ede8"/>
</svg>
